<svg height="512pt" viewBox="0 -2 512 512" width="512pt" xmlns="http://www.w3.org/2000/svg"><path d="m457.925781 141.589844-100.679687 76.234375c-6.644532 5.039062-15.28125-2.980469-10.753906-9.988281l42.890624-66.246094zm0 0" fill="#d8cecc"/><path d="m282.921875 181.5625c0 14.027344-11.371094 25.402344-25.402344 25.402344-14.027343 0-25.402343-11.375-25.402343-25.402344 0-14.03125 11.375-25.40625 25.402343-25.40625 14.03125 0 25.402344 11.375 25.402344 25.40625zm0 0" fill="#f2bb88"/><path d="m239.5 59.730469h-91.15625c-12.039062 0-21.800781 9.761719-21.800781 21.804687v118.121094c0 36.472656 50.6875 66.042969 67.378906 66.046875 16.691406-.003906 67.378906-29.574219 67.378906-66.046875v-118.121094c0-12.042968-9.761719-21.804687-21.800781-21.804687zm0 0" fill="#f2bb88"/><path d="m211.492188 260.507812c-7.097657 3.34375-13.394532 5.191407-17.570313 5.191407-16.695313 0-67.378906-29.566407-67.378906-66.042969v-118.117188c0-12.046874 9.761719-21.808593 21.796875-21.808593h35.140625c-12.039063 0-21.796875 9.761719-21.796875 21.808593v118.117188c0 27.359375 28.503906 50.832031 49.808594 60.851562zm0 0" fill="#e3a76f"/><path d="m242.917969 33.304688h-61.460938c-17.351562 0-31.941406 11.09375-36.183593 26.140624-2.261719-.660156-4.671876-1.011718-7.167969-1.011718h-6.410157c-13.363281 0-24.199218 10.175781-24.199218 22.730468v26.988282c0 9.453125 8.15625 17.113281 18.214844 17.113281h12.394531c12.796875 0 23.265625-9.332031 24.136719-21.144531 19.9375 20.265625 54.582031 33.183594 95.542968 32.722656h11.179688c6.285156 0 11.378906-6.078125 11.378906-13.578125v-54.800781c0-19.417969-16.753906-35.160156-37.425781-35.160156zm0 0" fill="#d19a75"/><path d="m280.34375 105.804688v17.460937c0 7.496094-5.089844 13.582031-11.375 13.582031h-11.183594c-40.960937.453125-75.609375-12.460937-95.550781-32.730468-.863281 11.816406-11.332031 21.144531-24.125 21.144531h-12.398437c-10.058594 0-18.210938-7.660157-18.210938-17.109375v-26.984375c0-6.488281 2.890625-12.339844 7.527344-16.464844v13.210937c0 9.449219 8.152344 17.109376 18.214844 17.109376h12.398437c12.789063 0 23.261719-9.328126 24.125-21.144532 19.941406 20.269532 54.585937 33.179688 95.550781 32.71875h11.183594c1.34375 0 2.640625-.28125 3.84375-.792968zm0 0" fill="#c9885b"/><path d="m155.726562 181.558594c0 14.027344-11.375 25.402344-25.402343 25.402344-14.03125 0-25.402344-11.375-25.402344-25.402344 0-14.03125 11.371094-25.40625 25.402344-25.40625 14.027343 0 25.402343 11.375 25.402343 25.40625zm0 0" fill="#e3a76f"/><path d="m480.453125 162.445312h-128.691406c-8.957031 0-16.214844-7.257812-16.214844-16.214843v-122.484375c0-8.957032 7.257813-16.214844 16.214844-16.214844h128.691406c8.953125 0 16.214844 7.257812 16.214844 16.214844v122.484375c0 8.957031-7.261719 16.214843-16.214844 16.214843zm0 0" fill="#fff5f4"/><path d="m323.9375 362.414062h-260.03125v-129.039062c0-16.496094 13.375-29.867188 29.867188-29.867188h200.296874c16.492188 0 29.867188 13.371094 29.867188 29.867188zm0 0" fill="#c0dbff"/><path d="m219.355469 276.53125c0 14.046875-11.386719 25.433594-25.433594 25.433594s-25.433594-11.386719-25.433594-25.433594 11.386719-25.433594 25.433594-25.433594 25.433594 11.386719 25.433594 25.433594zm0 0" fill="#fff5f4"/><path d="m128.910156 203.507812c-16.496094 0-29.867187 13.371094-29.867187 29.867188v129.042969h-35.140625v-129.042969c0-16.496094 13.375-29.867188 29.871094-29.867188zm0 0" fill="#a0cafe"/><path d="m219.359375 276.527344c0 10.960937-6.9375 20.308594-16.65625 23.875-2.730469 1.011718-5.691406 1.566406-8.785156 1.566406-14.042969 0-25.429688-11.386719-25.429688-25.441406 0-14.046875 11.386719-25.433594 25.429688-25.433594 3.09375 0 6.054687.554688 8.785156 1.566406 9.71875 3.566406 16.65625 12.914063 16.65625 23.867188zm0 0" fill="#ebe0da"/><path d="m219.359375 276.527344c0 10.960937-6.9375 20.308594-16.65625 23.875-9.71875-3.566406-16.644531-12.914063-16.644531-23.875 0-10.953125 6.925781-20.300782 16.644531-23.867188 9.71875 3.566406 16.65625 12.914063 16.65625 23.867188zm0 0" fill="#fff5f4"/><path d="m483.335938 501.1875h-454.300782c-2.078125 0-3.765625-1.6875-3.765625-3.765625v-113.199219h461.832031v113.199219c0 2.078125-1.6875 3.765625-3.765624 3.765625zm0 0" fill="#d8cecc"/><path d="m64.175781 501.1875h-35.140625c-2.078125 0-3.765625-1.6875-3.765625-3.765625v-113.199219h35.140625v113.199219c0 2.078125 1.6875 3.765625 3.765625 3.765625zm0 0" fill="#c8bebc"/><path d="m498.761719 400.597656h-485.519531c-3.152344 0-5.710938-2.554687-5.710938-5.707031v-39.625c0-3.152344 2.558594-5.710937 5.710938-5.710937h485.519531c3.152343 0 5.710937 2.558593 5.710937 5.710937v39.625c0 3.152344-2.554687 5.707031-5.710937 5.707031zm0 0" fill="#ebe0da"/><path d="m48.382812 400.597656h-35.140624c-3.152344 0-5.710938-2.558594-5.710938-5.710937v-39.617188c0-3.152343 2.558594-5.714843 5.710938-5.714843h35.140624c-3.152343 0-5.714843 2.5625-5.714843 5.714843v39.617188c0 3.152343 2.5625 5.710937 5.714843 5.710937zm0 0" fill="#d8cecc"/><path d="m386.902344 162.445312h-35.136719c-8.957031 0-16.214844-7.261718-16.214844-16.214843v-122.484375c0-8.957032 7.257813-16.214844 16.214844-16.214844h35.136719c-8.953125 0-16.210938 7.257812-16.210938 16.214844v122.484375c0 8.953125 7.257813 16.214843 16.210938 16.214843zm0 0" fill="#d8cecc"/><path d="m444.1875 36.570312c-12.875.167969-23.582031 9.035157-26.964844 20.890626-.144531.503906-.59375.855468-1.117187.855468-.519531 0-.96875-.351562-1.113281-.855468-3.460938-12.132813-14.59375-21.152344-27.921876-20.886719-20.382812.410156-31.128906 24.453125-18.257812 40.261719l45.28125 55.613281c1.039062 1.277343 2.988281 1.277343 4.03125 0l45.277344-55.613281c13.007812-15.976563 1.921875-40.542969-19.214844-40.265626zm0 0" fill="#ff72c3"/><path d="m169.914062 182.667969c0 4.40625-3.574218 7.980469-7.984374 7.980469-4.40625 0-7.980469-3.574219-7.980469-7.980469 0-4.410157 3.574219-7.984375 7.980469-7.984375 4.410156 0 7.984374 3.574218 7.984374 7.984375zm0 0"/><path d="m175.339844 155.683594c-1.941406-.753906-19.308594-7.1875-31.921875-1.894532-3.835938 1.609376-5.640625 6.019532-4.035157 9.855469 1.609376 3.835938 6.023438 5.640625 9.859376 4.03125 5.320312-2.230469 15.492187.074219 20.664062 2.050781 9.382812 3.625 14.617188-10.484374 5.433594-14.042968zm0 0"/><path d="m233.894531 182.667969c0 4.40625-3.574219 7.980469-7.980469 7.980469-4.410156 0-7.984374-3.574219-7.984374-7.980469 0-4.410157 3.574218-7.984375 7.984374-7.984375 4.40625 0 7.980469 3.574218 7.980469 7.984375zm0 0"/><path d="m244.429688 153.789062c-12.617188-5.292968-29.984376 1.140626-31.921876 1.894532-9.203124 3.566406-3.925781 17.675781 5.4375 14.042968 4.332032-1.679687 15.082032-4.386718 20.660157-2.050781 3.835937 1.609375 8.246093-.195312 9.855469-4.03125 1.605468-3.832031-.199219-8.246093-4.03125-9.855469zm0 0"/><path d="m498.757812 342.027344h-167.292968v-108.652344c0-20.621094-16.777344-37.398438-37.398438-37.398438h-6.949218c2.140624-4.355468 3.335937-9.246093 3.335937-14.425781 0-14.1875-9.015625-26.304687-21.617187-30.933593v-6.253907h.128906c10.421875 0 18.90625-9.46875 18.90625-21.113281v-24.859375c0-4.15625-3.363282-7.53125-7.53125-7.53125-4.15625 0-7.527344 3.375-7.527344 7.53125v24.859375c0 3.460938-2.027344 6.050781-3.847656 6.050781-14.105469 0-68.90625 2.515625-101.359375-30.46875-4.523438-4.609375-12.414063-1.714843-12.871094 4.730469-.59375 7.941406-7.890625 14.164062-16.625 14.164062-13.089844 0-15.410156.550782-19.097656-2.128906-2.429688-1.757812-3.984375-4.445312-3.984375-7.457031v-26.988281c0-8.351563 7.449218-15.199219 16.664062-15.199219 6.738282 0 8.417969-.175781 11.476563.710937 4.015625 1.171876 8.226562-1.15625 9.355469-5.191406.964843-3.421875 2.601562-6.554687 4.761718-9.285156 5.5-6.976562 14.394532-11.367188 24.175782-11.367188h61.453124c16.402344 0 29.816407 12.332032 29.898438 27.492188.027344 4.144531 3.394531 7.488281 7.527344 7.488281h.050781c4.15625-.019531 7.511719-3.414062 7.480469-7.570312-.121094-23.421875-20.289063-42.46875-44.957032-42.46875h-61.453124c-17.902344 0-33.886719 10.089843-41.035157 25.210937-1.574219-.105468-1.785156-.082031-8.734375-.082031-17.488281 0-31.726562 13.574219-31.726562 30.261719v26.988281c0 11.375 8.082031 20.972656 19.046875 23.800781v18.664063c-12.609375 4.640625-21.617188 16.757812-21.617188 30.945312 0 5.167969 1.207031 10.070313 3.34375 14.425781h-6.964843c-20.625 0-37.398438 16.777344-37.398438 37.398438v108.652344h-43.132812c-7.296876 0-13.242188 5.933594-13.242188 13.242187v39.617188c0 7.296875 5.945312 13.242187 13.242188 13.242187h4.5v89.292969c0 6.226563 5.066406 11.296875 11.292968 11.296875h22.589844c4.15625 0 7.53125-3.375 7.53125-7.53125s-3.375-7.53125-7.53125-7.53125h-18.824219v-85.527344h326.34375c4.15625 0 7.527344-3.375 7.527344-7.53125s-3.371094-7.527344-7.527344-7.527344c-15.0625 0-327.675781 0-344.085937 0v-35.984374h308.875 173.007812v35.984374c-24.460937 0-83.738281 0-107.679687 0-4.15625 0-7.527344 3.371094-7.527344 7.527344s3.371094 7.53125 7.527344 7.53125h90.308593v85.527344h-397.828124c-4.15625 0-7.527344 3.375-7.527344 7.53125s3.371094 7.53125 7.527344 7.53125h401.59375c6.226562 0 11.296874-5.070312 11.296874-11.296875v-89.292969h4.125c7.308594 0 13.242188-5.945312 13.242188-13.242187v-39.617188c0-7.308593-5.933594-13.242187-13.242188-13.242187zm-229.921874-174.292969c4.003906 3.273437 6.554687 8.253906 6.554687 13.816406s-2.550781 10.539063-6.554687 13.8125zm-134.765626-34.949219h4.039063c11.765625 0 22.1875-6.222656 27.65625-15.46875 21.707031 16.996094 53 26.703125 88.011719 27.035156v51.625h-119.707032c0-6.761718 0-57.328124 0-63.191406zm-15.058593 34.929688v27.660156c-3.996094-3.285156-6.554688-8.261719-6.554688-13.824219 0-5.574219 2.558594-10.554687 6.554688-13.835937zm197.394531 174.3125h-244.972656v-108.652344c0-12.320312 10.019531-22.339844 22.339844-22.339844h200.292968c12.320313 0 22.339844 10.019532 22.339844 22.339844zm0 0"/><path d="m351.765625 169.972656h10.28125l-21.867187 33.773438c-9.105469 14.054687 8.28125 30.195312 21.613281 20.082031l71.113281-53.855469h47.546875c13.09375 0 23.746094-10.652344 23.746094-23.742187v-122.484375c0-13.09375-10.652344-23.746094-23.746094-23.746094h-128.6875c-13.101563 0-23.746094 10.652344-23.746094 23.746094v122.484375c0 13.089843 10.644531 23.742187 23.746094 23.742187zm1.304687 41.574219 26.917969-41.574219h27.980469zm-9.988281-187.800781c0-4.789063 3.894531-8.6875 8.683594-8.6875h128.6875c4.789063 0 8.6875 3.898437 8.6875 8.6875v122.484375c0 4.789062-3.898437 8.683593-8.6875 8.683593-28.027344 0-99.773437 0-128.6875 0-4.789063 0-8.683594-3.894531-8.683594-8.683593zm0 0"/><path d="m193.921875 243.566406c-18.175781 0-32.964844 14.789063-32.964844 32.964844s14.789063 32.960938 32.964844 32.960938 32.964844-14.785157 32.964844-32.960938-14.789063-32.964844-32.964844-32.964844zm0 50.867188c-9.871094 0-17.902344-8.03125-17.902344-17.902344s8.03125-17.90625 17.902344-17.90625 17.902344 8.035156 17.902344 17.90625-8.03125 17.902344-17.902344 17.902344zm0 0"/><path d="m408.253906 137.203125c4.058594 4.984375 11.660156 4.972656 15.707032 0l45.28125-55.613281c17.136718-21.042969 2.21875-52.917969-25.15625-52.546875-11.097657.144531-21.355469 5.59375-27.960938 14.175781-15.367188-20.101562-46.597656-18.96875-57.382812 4.3125-5.253907 11.351562-3.632813 24.402344 4.230468 34.058594zm-35.84375-83.339844c7.300782-15.769531 30.472656-11.40625 35.339844 5.667969 1.0625 3.71875 4.5 6.316406 8.355469 6.316406 3.859375 0 7.296875-2.597656 8.359375-6.320312 2.554687-8.964844 10.707031-15.308594 19.820312-15.425782 14.765625-.261718 22.222656 16.996094 13.277344 27.980469l-41.453125 50.917969-41.457031-50.917969c-4.265625-5.234375-5.101563-12.046875-2.242188-18.21875zm0 0"/></svg>